<svg width="1440" height="1818" viewBox="0 0 1440 1818" fill="none" xmlns="http://www.w3.org/2000/svg">
<path d="M431.5 219C323.1 47.8 103.333 -42.6667 7 -66.5C-20.3333 -23.6667 -78.6 73.4 -93 119C-107.4 164.6 -206 418.667 -253.5 540C-238 995.333 -168.5 1887.4 -14.5 1813C178 1720 285.5 1617 538.5 1474.5C791.5 1332 977 1606.5 1362.5 1663.5C1670.9 1709.1 1448.17 1429.17 1469.5 1378C1555 1298.33 1665.4 1085.5 1423 871.5C1120 604 980.5 825.5 709.5 757.5C438.5 689.5 567 433 431.5 219Z" fill="url(#paint0_linear)"/>
<defs>
<linearGradient id="paint0_linear" x1="658.42" y1="-66.5" x2="658.42" y2="1817.38" gradientUnits="userSpaceOnUse">
<stop stop-color="#F2BD1D"/>
<stop offset="1" stop-color="#FF7A01"/>
</linearGradient>
</defs>
</svg>
