<svg width="1152" height="700" viewBox="0 0 1152 700" fill="none" xmlns="http://www.w3.org/2000/svg">
<path d="M345.964 181.667C260.199 72.7304 86.3223 15.1654 10.1045 0C-11.5213 27.2553 6.06943 96.0193 -5.32368 125.035C-16.7168 154.051 -158.419 308.717 -196 385.923C-183.737 675.656 -224.087 1098.21 -102.244 1050.87C50.0595 991.691 230.45 1071.23 430.621 980.555C630.792 889.881 777.557 1064.55 1082.56 1100.82C1326.56 1129.83 1150.34 951.709 1167.22 919.151C1234.86 868.459 1322.21 733.03 1130.43 596.86C890.697 426.647 780.326 567.589 565.914 524.32C351.502 481.051 453.17 317.837 345.964 181.667Z" fill="url(#paint0_linear)"/>
<defs>
<linearGradient id="paint0_linear" x1="525.5" y1="0" x2="525.5" y2="1198.73" gradientUnits="userSpaceOnUse">
<stop stop-color="#F2BD1D"/>
<stop offset="1" stop-color="#FF7A01"/>
</linearGradient>
</defs>
</svg>
