<svg width="74" height="75" viewBox="0 0 74 75" fill="none" xmlns="http://www.w3.org/2000/svg">
<g clip-path="url(#clip0)">
<path d="M67.2148 12.0977H6.4768C2.90549 12.0977 0 15.0031 0 18.5745V56.1085C0 59.6798 2.90549 62.5853 6.4768 62.5853H67.2148C70.7861 62.5853 73.6916 59.6798 73.6916 56.1085V18.5745C73.6916 15.0031 70.7861 12.0977 67.2148 12.0977ZM66.3695 16.4155L65.505 17.1353L39.4155 38.8601C37.9264 40.0999 35.7649 40.0999 34.2761 38.8601L8.18653 17.1353L7.32209 16.4155H66.3695ZM4.31787 19.5327L25.575 37.2335L4.31787 51.3807V19.5327ZM67.2148 58.2674H6.4768C5.4336 58.2674 4.56111 57.5236 4.36119 56.5387L29.0371 40.1163L31.5132 42.1782C33.0582 43.4646 34.9521 44.1079 36.8459 44.1079C38.7397 44.1079 40.6336 43.4646 42.1786 42.1782L44.6548 40.1163L69.3305 56.5386C69.1305 57.5238 68.258 58.2674 67.2148 58.2674ZM69.3737 51.3807L48.1166 37.2337L69.3737 19.5327V51.3807Z" fill="black"/>
</g>
<defs>
<clipPath id="clip0">
<rect width="73.6916" height="73.6916" fill="white" transform="translate(0 0.495605)"/>
</clipPath>
</defs>
</svg>
