<svg width="59" height="60" viewBox="0 0 59 60" fill="none" xmlns="http://www.w3.org/2000/svg">
<g clip-path="url(#clip0)">
<path d="M58.9422 18.2768C58.8039 15.1419 58.297 12.9867 57.5708 11.1192C56.8216 9.13687 55.669 7.36209 54.159 5.88671C52.6836 4.38837 50.8971 3.2241 48.9378 2.48663C47.0594 1.76042 44.9155 1.25347 41.7806 1.11526C38.6223 0.965331 37.6196 0.930664 29.6093 0.930664C21.5989 0.930664 20.5963 0.965331 17.4497 1.10355C14.3148 1.24177 12.1596 1.74917 10.2925 2.47493C8.30972 3.2241 6.53494 4.37667 5.05956 5.88671C3.56122 7.36209 2.3974 9.14857 1.65948 11.1079C0.933275 12.9867 0.426325 15.1302 0.288107 18.2651C0.138183 21.4234 0.103516 22.4261 0.103516 30.4364C0.103516 38.4468 0.138183 39.4494 0.276401 42.596C0.414619 45.7309 0.92202 47.8861 1.64823 49.7537C2.3974 51.736 3.56122 53.5108 5.05956 54.9861C6.53494 56.4845 8.32142 57.6488 10.2808 58.3862C12.1596 59.1124 14.3031 59.6194 17.4384 59.7576C20.5846 59.8963 21.5877 59.9305 29.598 59.9305C37.6084 59.9305 38.611 59.8963 41.7576 59.7576C44.8925 59.6194 47.0477 59.1124 48.9148 58.3862C52.8799 56.8532 56.0148 53.7183 57.5478 49.7537C58.2736 47.8749 58.781 45.7309 58.9192 42.596C59.0574 39.4494 59.0921 38.4468 59.0921 30.4364C59.0921 22.4261 59.0804 21.4234 58.9422 18.2768ZM53.6291 42.3655C53.5021 45.2469 53.0181 46.8029 52.6147 47.8402C51.6233 50.4105 49.5834 52.4505 47.0131 53.4419C45.9758 53.8453 44.4085 54.3293 41.5384 54.4558C38.4264 54.5945 37.4931 54.6287 29.621 54.6287C21.7488 54.6287 20.8038 54.5945 17.7032 54.4558C14.8217 54.3293 13.2658 53.8453 12.2284 53.4419C10.9494 52.9692 9.78509 52.22 8.84008 51.2403C7.86039 50.2836 7.11122 49.131 6.63849 47.8519C6.23509 46.8146 5.7511 45.2469 5.62459 42.3772C5.48592 39.2653 5.4517 38.3315 5.4517 30.4594C5.4517 22.5873 5.48592 21.6422 5.62459 18.542C5.7511 15.6606 6.23509 14.1046 6.63849 13.0673C7.11122 11.7878 7.86039 10.6239 8.85178 9.67848C9.80805 8.6988 10.9606 7.94963 12.2402 7.47735C13.2775 7.07395 14.8451 6.58996 17.7149 6.463C20.8268 6.32478 21.7606 6.29011 29.6322 6.29011C37.5161 6.29011 38.4494 6.32478 41.5501 6.463C44.4315 6.58996 45.9875 7.07395 47.0248 7.47735C48.3039 7.94963 49.4681 8.6988 50.4131 9.67848C51.3928 10.6352 52.142 11.7878 52.6147 13.0673C53.0181 14.1046 53.5021 15.6718 53.6291 18.542C53.7673 21.6539 53.802 22.5873 53.802 30.4594C53.802 38.3315 53.7673 39.2536 53.6291 42.3655Z" fill="black"/>
<path d="M29.6094 15.2803C21.242 15.2803 14.4531 22.0687 14.4531 30.4366C14.4531 38.8044 21.242 45.5928 29.6094 45.5928C37.9772 45.5928 44.7657 38.8044 44.7657 30.4366C44.7657 22.0687 37.9772 15.2803 29.6094 15.2803ZM29.6094 40.2681C24.1811 40.2681 19.7779 35.8653 19.7779 30.4366C19.7779 25.0078 24.1811 20.6051 29.6094 20.6051C35.0382 20.6051 39.4409 25.0078 39.4409 30.4366C39.4409 35.8653 35.0382 40.2681 29.6094 40.2681Z" fill="black"/>
<path d="M48.9032 14.6809C48.9032 16.6348 47.3189 18.2192 45.3645 18.2192C43.4105 18.2192 41.8262 16.6348 41.8262 14.6809C41.8262 12.7265 43.4105 11.1426 45.3645 11.1426C47.3189 11.1426 48.9032 12.7265 48.9032 14.6809Z" fill="black"/>
</g>
<defs>
<clipPath id="clip0">
<rect width="59" height="59" fill="white" transform="translate(0 0.930664)"/>
</clipPath>
</defs>
</svg>
