<svg width="82" height="82" viewBox="0 0 82 82" fill="none" xmlns="http://www.w3.org/2000/svg">
<path d="M41.0764 68.5037C41.07 68.5037 41.063 68.5037 41.056 68.5037C38.7504 68.488 18.3682 68.3019 12.5935 66.7389C8.55773 65.6532 5.37192 62.4683 4.28413 58.4288C2.77313 52.7516 2.86932 41.8214 2.87981 40.9486C2.8699 40.0799 2.77255 29.0593 4.27947 23.3354C4.28122 23.3302 4.28238 23.3243 4.28413 23.3191C5.35967 19.3256 8.61719 16.0422 12.5836 14.9535C12.5935 14.9506 12.604 14.9483 12.6139 14.9454C18.3233 13.4437 38.7458 13.2599 41.056 13.2441H41.0974C43.4088 13.2599 63.8452 13.446 69.5669 15.0113C73.5921 16.0941 76.7756 19.2749 77.8663 23.3092C79.4338 29.0371 79.2887 40.0817 79.273 41.014C79.284 41.9322 79.3756 52.7644 77.8733 58.4702C77.8721 58.476 77.8704 58.4813 77.8692 58.4865C76.7808 62.5261 73.5956 65.7109 69.5552 66.7978C69.5499 66.7996 69.5441 66.8007 69.5389 66.8025C63.8301 68.3036 43.407 68.4874 41.0974 68.5037C41.0904 68.5037 41.0834 68.5037 41.0764 68.5037ZM10.0495 24.8674C8.72271 29.9198 8.84804 40.7998 8.84921 40.9095V40.9883C8.80957 44.0057 8.94889 52.744 10.0501 56.8827C10.5841 58.8646 12.1551 60.4346 14.1476 60.9707C18.4084 62.1241 35.009 62.487 41.0764 62.5296C47.1595 62.487 63.7846 62.134 68.0139 61.0267C70 60.4888 71.5658 58.9241 72.1033 56.9399C73.2056 52.7405 73.3438 44.0448 73.3036 41.0466C73.3036 41.0151 73.3036 40.9836 73.3041 40.9521C73.3589 37.8985 73.2511 29.0581 72.1085 24.8861C72.1073 24.882 72.1062 24.878 72.1056 24.8739C71.5693 22.8833 69.9977 21.3133 68.0051 20.7772C63.7857 19.6226 47.1583 19.2609 41.0764 19.2183C34.9974 19.2609 18.3886 19.6132 14.1465 20.7194C12.1918 21.262 10.5852 22.8879 10.0495 24.8674ZM74.9871 57.7094H74.9889H74.9871ZM33.4683 52.971V28.7763L54.3612 40.8739L33.4683 52.971Z" fill="black"/>
</svg>
